<mxfile host="app.diagrams.net" modified="2024-01-27T01:49:04.698Z" agent="Mozilla/5.0 (Windows NT 10.0; Win64; x64) AppleWebKit/537.36 (KHTML, like Gecko) Chrome/120.0.0.0 Safari/537.36" etag="8e6Y132cgKzEidjFv_At" version="23.0.2" type="google">
  <diagram name="Page-1" id="fC9VUFjVB1fX8dewRsBc">
    <mxGraphModel grid="1" page="1" gridSize="10" guides="1" tooltips="1" connect="1" arrows="1" fold="1" pageScale="1" pageWidth="827" pageHeight="1169" math="0" shadow="0">
      <root>
        <mxCell id="0" />
        <mxCell id="1" parent="0" />
        <mxCell id="wvRBYxFBbtZCOOlWvhNV-1" value="تنظیمات و مدیریت سامانه" style="swimlane;html=1;childLayout=stackLayout;resizeParent=1;resizeParentMax=0;horizontal=0;startSize=20;horizontalStack=0;" vertex="1" parent="1">
          <mxGeometry x="15" y="130" width="920" height="210" as="geometry" />
        </mxCell>
        <mxCell id="wvRBYxFBbtZCOOlWvhNV-2" value="مدیر سامانه" style="swimlane;html=1;startSize=20;horizontal=0;" vertex="1" parent="wvRBYxFBbtZCOOlWvhNV-1">
          <mxGeometry x="20" width="900" height="120" as="geometry" />
        </mxCell>
        <mxCell id="wvRBYxFBbtZCOOlWvhNV-3" style="edgeStyle=orthogonalEdgeStyle;rounded=0;orthogonalLoop=1;jettySize=auto;html=1;" edge="1" parent="wvRBYxFBbtZCOOlWvhNV-2" source="wvRBYxFBbtZCOOlWvhNV-4" target="wvRBYxFBbtZCOOlWvhNV-5">
          <mxGeometry relative="1" as="geometry" />
        </mxCell>
        <mxCell id="wvRBYxFBbtZCOOlWvhNV-4" value="" style="ellipse;fillColor=strokeColor;html=1;" vertex="1" parent="wvRBYxFBbtZCOOlWvhNV-2">
          <mxGeometry x="33" y="50" width="30" height="30" as="geometry" />
        </mxCell>
        <mxCell id="wvRBYxFBbtZCOOlWvhNV-5" value="&lt;font style=&quot;font-size: 14px;&quot;&gt;درخواست تغییر تغییر ساختار اداری&lt;/font&gt;" style="html=1;align=center;verticalAlign=top;rounded=1;absoluteArcSize=1;arcSize=13;dashed=0;whiteSpace=wrap;" vertex="1" parent="wvRBYxFBbtZCOOlWvhNV-2">
          <mxGeometry x="118" y="45" width="140" height="40" as="geometry" />
        </mxCell>
        <mxCell id="wvRBYxFBbtZCOOlWvhNV-6" style="edgeStyle=orthogonalEdgeStyle;rounded=0;orthogonalLoop=1;jettySize=auto;html=1;" edge="1" parent="wvRBYxFBbtZCOOlWvhNV-2" source="wvRBYxFBbtZCOOlWvhNV-7" target="wvRBYxFBbtZCOOlWvhNV-8">
          <mxGeometry relative="1" as="geometry" />
        </mxCell>
        <mxCell id="wvRBYxFBbtZCOOlWvhNV-7" value="&lt;font style=&quot;font-size: 14px;&quot;&gt;ورود لیست تغییرات&lt;/font&gt;" style="html=1;align=center;verticalAlign=top;rounded=1;absoluteArcSize=1;arcSize=13;dashed=0;whiteSpace=wrap;" vertex="1" parent="wvRBYxFBbtZCOOlWvhNV-2">
          <mxGeometry x="293" y="45" width="140" height="40" as="geometry" />
        </mxCell>
        <mxCell id="wvRBYxFBbtZCOOlWvhNV-8" value="&lt;font style=&quot;font-size: 14px;&quot;&gt;تایید لیست تغییرات توسط مدیر سامانه&lt;/font&gt;" style="shape=mxgraph.uml25.action;html=1;align=center;verticalAlign=middle;absoluteArcSize=1;arcSize=10;dashed=0;spacingRight=10;whiteSpace=wrap;" vertex="1" parent="wvRBYxFBbtZCOOlWvhNV-2">
          <mxGeometry x="488" y="43.5" width="146" height="43" as="geometry" />
        </mxCell>
        <mxCell id="wvRBYxFBbtZCOOlWvhNV-9" value="سامانه" style="swimlane;html=1;startSize=20;horizontal=0;" vertex="1" parent="wvRBYxFBbtZCOOlWvhNV-1">
          <mxGeometry x="20" y="120" width="900" height="90" as="geometry">
            <mxRectangle x="20" y="180" width="580" height="30" as="alternateBounds" />
          </mxGeometry>
        </mxCell>
        <mxCell id="wvRBYxFBbtZCOOlWvhNV-10" value="" style="ellipse;html=1;shape=endState;fillColor=strokeColor;" vertex="1" parent="wvRBYxFBbtZCOOlWvhNV-9">
          <mxGeometry x="858" y="35" width="30" height="30" as="geometry" />
        </mxCell>
        <mxCell id="wvRBYxFBbtZCOOlWvhNV-11" value="&lt;font style=&quot;font-size: 14px;&quot;&gt;درخواست لیست تغییرات&lt;/font&gt;" style="html=1;align=center;verticalAlign=top;rounded=1;absoluteArcSize=1;arcSize=13;dashed=0;whiteSpace=wrap;" vertex="1" parent="wvRBYxFBbtZCOOlWvhNV-9">
          <mxGeometry x="118" y="30" width="140" height="40" as="geometry" />
        </mxCell>
        <mxCell id="wvRBYxFBbtZCOOlWvhNV-12" style="edgeStyle=orthogonalEdgeStyle;rounded=0;orthogonalLoop=1;jettySize=auto;html=1;" edge="1" parent="wvRBYxFBbtZCOOlWvhNV-9" source="wvRBYxFBbtZCOOlWvhNV-13" target="wvRBYxFBbtZCOOlWvhNV-10">
          <mxGeometry relative="1" as="geometry" />
        </mxCell>
        <mxCell id="wvRBYxFBbtZCOOlWvhNV-13" value="&lt;font style=&quot;font-size: 14px;&quot;&gt;اعمال تغییرات دریافتی&lt;/font&gt;" style="shape=mxgraph.uml25.action;html=1;align=center;verticalAlign=middle;absoluteArcSize=1;arcSize=10;dashed=0;spacingLeft=10;flipH=1;whiteSpace=wrap;" vertex="1" parent="wvRBYxFBbtZCOOlWvhNV-9">
          <mxGeometry x="668" y="25" width="150" height="50" as="geometry" />
        </mxCell>
        <mxCell id="wvRBYxFBbtZCOOlWvhNV-14" style="edgeStyle=orthogonalEdgeStyle;rounded=0;orthogonalLoop=1;jettySize=auto;html=1;" edge="1" parent="wvRBYxFBbtZCOOlWvhNV-1" source="wvRBYxFBbtZCOOlWvhNV-8" target="wvRBYxFBbtZCOOlWvhNV-13">
          <mxGeometry relative="1" as="geometry">
            <mxPoint x="593" y="220" as="targetPoint" />
            <mxPoint x="593" y="90" as="sourcePoint" />
            <Array as="points">
              <mxPoint x="668" y="65" />
              <mxPoint x="668" y="170" />
            </Array>
          </mxGeometry>
        </mxCell>
        <mxCell id="wvRBYxFBbtZCOOlWvhNV-15" value="&lt;font style=&quot;font-size: 12px;&quot;&gt;لیست تغییرات&lt;/font&gt;" style="edgeLabel;html=1;align=center;verticalAlign=middle;resizable=0;points=[];" connectable="0" vertex="1" parent="wvRBYxFBbtZCOOlWvhNV-14">
          <mxGeometry x="-0.6339" relative="1" as="geometry">
            <mxPoint x="14" y="-21" as="offset" />
          </mxGeometry>
        </mxCell>
        <mxCell id="wvRBYxFBbtZCOOlWvhNV-16" style="edgeStyle=orthogonalEdgeStyle;rounded=0;orthogonalLoop=1;jettySize=auto;html=1;" edge="1" parent="wvRBYxFBbtZCOOlWvhNV-1" source="wvRBYxFBbtZCOOlWvhNV-5" target="wvRBYxFBbtZCOOlWvhNV-11">
          <mxGeometry relative="1" as="geometry" />
        </mxCell>
        <mxCell id="wvRBYxFBbtZCOOlWvhNV-17" style="edgeStyle=orthogonalEdgeStyle;rounded=0;orthogonalLoop=1;jettySize=auto;html=1;" edge="1" parent="wvRBYxFBbtZCOOlWvhNV-1" source="wvRBYxFBbtZCOOlWvhNV-11" target="wvRBYxFBbtZCOOlWvhNV-7">
          <mxGeometry relative="1" as="geometry">
            <mxPoint x="393" y="90" as="targetPoint" />
          </mxGeometry>
        </mxCell>
      </root>
    </mxGraphModel>
  </diagram>
</mxfile>
